<?xml version="1.0" ?>
<svg id="Слой_1" style="enable-background:new 0 0 512 512;" version="1.1" viewBox="0 0 512 512" xml:space="preserve"
     xmlns="http://www.w3.org/2000/svg"><style type="text/css">
	.st0{fill:#FEEAE2;}
	.st1{fill:#5C4A43;}
	.st2{fill:#FFFFFF;}
	.st3{fill:#BEB7B4;}
	.st4{fill:#FEF7F3;}
</style>
    <g><g><path class="st0" d="M460.6,329.8c0,6.7-2.7,12.8-7.1,17.1c-4.4,4.4-10.4,7.1-17.1,7.1h-23.3c-5,0-9.1,3.9-9.1,8.8v45.3    c0,11.5-9.7,20.8-21.6,20.8H197.9c-11.9,0-21.6-9.3-21.6-20.8v-42.6c0-6.4-5.4-11.6-12-11.6h-23.3c-13.3,0-24.2-10.9-24.2-24.3    c0-6.7,2.7-12.8,7.1-17.1c0.3-0.3,0.6-0.6,1-0.9c7.2-6.5,9.8-16.3,6.2-25.1c-8.8-21.6-12.5-47.5-12.5-70.6    c0-87,76.2-157.5,170.1-157.5S458.8,129,458.8,216c0,23-3.7,48.9-12.5,70.6c-3.6,8.8-1,18.7,6.2,25.1    C457.5,316.1,460.6,322.6,460.6,329.8z"/></g>
        <g><g><path class="st1" d="M422.7,326.7c-0.2,7.6-4.3,14.4-11.2,17.7c-3.8,1.8-7.8,1.8-11.9,1.8c-7.3,0-14.9-0.6-22.2,0.1     c-10.2,1-14.3,9.3-14.3,18.4c0,8.3,0,16.7,0,25c0,6.4,0.2,12.8,0,19.2c-0.3,9.4-7.7,16-16.9,16.2c-7.6,0.2-15.2,0-22.7,0     c-35.2,0-70.5,0-105.7,0c-15.6,0-31.1,0-46.7,0c-6.7,0-13.7,0.5-20.4,0c-9.9-0.8-15.4-8.7-15.4-18c0-8.1,0-16.1,0-24.2     c0-6.1,0.2-12.3,0-18.4c-0.5-11.6-9.7-18.2-20.7-18.2c-7.4,0-14.9,0.1-22.3,0c-12.5-0.2-22.1-11.8-19.1-24.3     c1.8-7.5,8.6-11.2,12.2-17.6c3.5-6.2,4.8-13.5,3.3-20.5c-1.6-7.7-5.4-15.2-7.5-22.9c-2.2-8.2-3.8-16.6-4.9-25     c-3.5-27.4-2.1-54.9,7.5-81c8.5-23.1,22.9-43.9,40.9-60.7c38.9-36.3,93.4-52.2,145.9-45.9c50.9,6.1,99.1,34.4,126.6,78     c13.2,21,21.4,45,23.2,69.8c1.1,15.6,0.1,31.5-2.5,46.9c-1.4,8.3-3.3,16.6-5.8,24.6c-2.3,7.3-6.2,14.4-6.2,22.1     c0,6.6,2.4,13.1,6.5,18.3c2.2,2.8,5,4.9,7,7.8C421.6,319.2,422.6,322.8,422.7,326.7c0.2,7.7,12.2,7.7,12,0     c-0.2-7.9-2.9-15.2-8.1-21.1c-4.9-5.6-9.7-10.4-8.4-18.5c0.6-3.6,2.4-7.1,3.7-10.6c1.5-4.3,2.9-8.7,4-13.2     c2.2-8.4,3.8-17,4.9-25.7c3.8-28.7,2.5-57.9-7.5-85.3C405,102.1,363,63.7,312.9,46.1c-53-18.7-113.8-13.4-162.6,14.6     C104.6,87,71.1,132.9,64,185.6c-4.2,31.6-0.1,65.9,11.3,95.7c2.7,7.1,2.9,13.9-2.3,20c-5.1,6.1-10.1,10.8-11.7,19.1     c-2.8,14,4.3,28.7,17.3,34.8c8.5,4,18.1,3.1,27.3,3.1c6.1,0,16.9-2.1,17.4,6.6c0.9,14.6-0.3,29.3,0,43.9     c0.3,12.2,7.6,22.7,19.2,26.8c4.2,1.5,8.6,1.6,13,1.6c11.6,0,23.2,0,34.7,0c37.7,0,75.3,0,113,0c12.6,0,25.2,0,37.8,0     c2.2,0,4.5,0.1,6.8,0c13.9-0.8,25.7-11.2,27.2-25.2c0.6-6.1,0.2-12.5,0.2-18.7c0-9,0-18,0-27c0-1.6-0.4-4,0.1-5.6     c1.2-3.1,5.3-2.4,7.9-2.4c8.2,0,16.8,0.8,24.9-0.4c15.5-2.3,26.2-15.8,26.7-31.2C435,319,423,319,422.7,326.7z"/></g></g>
        <g><g><g><path class="st1" d="M189.9,445.8c0-10.1,0-20.2,0-30.4c0-7.7-12-7.7-12,0c0,10.1,0,20.2,0,30.4      C177.9,453.5,189.9,453.6,189.9,445.8L189.9,445.8z"/></g></g>
            <g><g><path class="st1" d="M229.4,445.8c0-10.1,0-20.2,0-30.4c0-7.7-12-7.7-12,0c0,10.1,0,20.2,0,30.4      C217.4,453.5,229.4,453.6,229.4,445.8L229.4,445.8z"/></g></g>
            <g><g><path class="st1" d="M273.4,445.8c0-10.1,0-20.2,0-30.4c0-7.7-12-7.7-12,0c0,10.1,0,20.2,0,30.4      C261.4,453.5,273.4,453.6,273.4,445.8L273.4,445.8z"/></g></g>
            <g><g><path class="st1" d="M317.4,445.8c0-10.1,0-20.2,0-30.4c0-7.7-12-7.7-12,0c0,10.1,0,20.2,0,30.4      C305.4,453.5,317.4,453.6,317.4,445.8L317.4,445.8z"/></g></g></g>
        <g><g><g><circle class="st1" cx="189.9" cy="278.4" r="27.3"/><g><path class="st1" d="M211.2,278.4c-0.3,11.7-9.5,21.3-21.3,21.3c-11.6,0-21.3-9.7-21.3-21.3c0-11.6,9.7-21.3,21.3-21.3       C201.7,257.1,210.9,266.8,211.2,278.4c0.2,7.7,12.2,7.7,12,0c-0.3-14-8.8-26.4-22-31.3c-13-4.8-28.3-0.6-37,10.1       c-8.7,10.7-10.1,26-3.1,38c7.1,12.2,21.3,18.4,35.1,15.9c15.8-2.9,26.7-17,27-32.7C223.4,270.7,211.4,270.7,211.2,278.4z"/></g></g><g><circle class="st1" cx="308.3" cy="278.4" r="27.3"/>
            <g><path class="st1" d="M329.6,278.4c-0.3,11.7-9.5,21.3-21.3,21.3c-11.6,0-21.3-9.7-21.3-21.3c0-11.6,9.7-21.3,21.3-21.3       C320.1,257.1,329.3,266.8,329.6,278.4c0.2,7.7,12.2,7.7,12,0c-0.3-14-8.8-26.4-22-31.3c-13-4.8-28.3-0.6-37,10.1       c-8.7,10.7-10.1,26-3.1,38c7.1,12.2,21.3,18.4,35.1,15.9c15.8-2.9,26.7-17,27-32.7C341.8,270.7,329.8,270.7,329.6,278.4z"/></g></g></g>
            <g><path class="st1" d="M249.1,343.8L249.1,343.8c10.4,0,16.6-11.7,10.7-20.3l-10.5-15.3c-0.1-0.2-0.3-0.2-0.5,0l-10.5,15.3     C232.5,332.1,238.7,343.8,249.1,343.8z"/>
                <g><path class="st1" d="M249.1,349.8c10.7,0,19.5-9.3,18.9-20c-0.4-7.5-6.1-13.7-10.2-19.7c-1.5-2.2-3.2-5.6-5.5-7      c-4.3-2.6-7.7,0.7-9.9,4c-3.7,5.4-8.7,10.9-11,17.1C226.5,336.7,236.2,349.2,249.1,349.8c7.7,0.4,7.7-11.6,0-12      c-3.5-0.2-6.6-2.6-6.9-6.3c-0.2-2.7,1.3-4.7,2.7-6.7c3.1-4.5,6.1-9,9.2-13.5c-1.7,1-3.5,2-5.2,3c0.2,0,0.3,0,0.5,0      c-1.7-1-3.5-2-5.2-3c3.1,4.6,6.3,9.1,9.4,13.7c1.4,2.1,2.8,4.1,2.5,6.8c-0.5,3.4-3.5,6-6.9,6      C241.3,337.8,241.3,349.8,249.1,349.8z"/></g></g>
            <g><g><path class="st1" d="M239.8,381.6c17.6,0,35.2,0,52.8,0c7.7,0,7.7-12,0-12c-17.6,0-35.2,0-52.8,0      C232.1,369.6,232.1,381.6,239.8,381.6L239.8,381.6z"/></g></g>
            <g><g><circle class="st2" cx="190.9" cy="278.4" r="13.1"/></g>
                <g><circle class="st2" cx="168.4" cy="279.2" r="5.9"/></g></g>
            <g><g><circle class="st2" cx="309.3" cy="279.2" r="13.1"/></g>
                <g><circle class="st2" cx="286.8" cy="280" r="5.9"/></g></g>
            <g><g><path class="st1" d="M188.5,224c3.2,0,6.3,0,9.5,0c3.1,0,6.1-2.8,6-6c-0.1-3.3-2.6-6-6-6c-3.2,0-6.3,0-9.5,0c-3.1,0-6.1,2.8-6,6      C182.6,221.3,185.1,224,188.5,224L188.5,224z"/></g></g>
            <g><g><path class="st1" d="M303.5,200.4c3.2,0,6.3,0,9.5,0c3.1,0,6.1-2.8,6-6c-0.1-3.3-2.6-6-6-6c-3.2,0-6.3,0-9.5,0      c-3.1,0-6.1,2.8-6,6C297.7,197.7,300.2,200.4,303.5,200.4L303.5,200.4z"/></g></g>
            <g><path class="st3" d="M249.8,335.3L249.8,335.3c5.3,0,8.4-5.9,5.4-10.3l-5.3-7.8c-0.1-0.1-0.2-0.1-0.2,0l-5.3,7.8     C241.3,329.4,244.5,335.3,249.8,335.3z"/></g></g>
        <g><ellipse class="st4" cx="183.9" cy="336.1" rx="17.7" ry="13.1"/></g>
        <g><ellipse class="st4" cx="318.1" cy="336.4" rx="17.7" ry="13.1"/></g></g></svg>