<svg viewBox="0 0 24 24" xml:space="preserve" xmlns="http://www.w3.org/2000/svg"><path d="m12.001 1-.283.004a9.771 9.771 0 0 0-2.226.332.501.501 0 0 0-.029.959l.695.231c.246.082.39.344.326.596l-.288 1.153a.498.498 0 0 0 .3.585l1.688.675a.502.502 0 0 1 .28.651.51.51 0 0 1-.65.278l-2.5-1a.501.501 0 0 1-.299-.586l.275-1.101a.501.501 0 0 0-.327-.596l-1.893-.63a.501.501 0 0 0-.43.055C3.795 4.45 2.06 7.521 2.002 10.818A9.998 9.998 0 0 0 6 18.99V21c0 1.103.897 2 2 2a.5.5 0 0 0 .5-.5v-2a.5.5 0 0 1 1 0v2a.5.5 0 0 0 .5.5h1a.5.5 0 0 0 .5-.5v-2a.5.5 0 0 1 1 0v2a.5.5 0 0 0 .5.5h1a.5.5 0 0 0 .5-.5v-2a.5.5 0 0 1 1 0v2a.5.5 0 0 0 .5.5c1.102 0 2-.897 2-2v-2.01A10.02 10.02 0 0 0 22 11c0-5.514-4.486-10-9.999-10zM8.479 13.018c-.626 0-1.234-.323-1.715-.91-.622-.76-.941-1.866-.775-2.689C6.171 8.517 6.754 8 7.588 8c1.371 0 3.245 1.501 3.386 2.443a2.131 2.131 0 0 1-.481 1.734c-.462.534-1.195.841-2.014.841zM11.5 16.5c0 .869-.421 1.5-1 1.5s-1-.631-1-1.5c0-.712.885-1.606 1.156-1.863A.5.5 0 0 1 11.5 15v1.5zm2 1.5c-.579 0-1-.631-1-1.5V15a.502.502 0 0 1 .844-.363c.271.257 1.156 1.151 1.156 1.863 0 .869-.421 1.5-1 1.5zm3.735-5.91c-.48.587-1.089.91-1.715.91-.818 0-1.552-.306-2.013-.84a2.13 2.13 0 0 1-.481-1.733c.141-.943 2.015-2.444 3.386-2.444.834 0 1.417.517 1.599 1.419.166.822-.154 1.928-.776 2.688z" fill="#ebebeb" style="--darkreader-inline-fill: #232628;" data-darkreader-inline-fill="" class="fill-303c42"></path></svg>