<?xml version="1.0" ?><!DOCTYPE svg  PUBLIC '-//W3C//DTD SVG 1.1 Tiny//EN'
        'http://www.w3.org/Graphics/SVG/1.1/DTD/svg11-tiny.dtd'>
<svg baseProfile="tiny" version="1.1" viewBox="0 0 128 128" xml:space="preserve" xmlns="http://www.w3.org/2000/svg"
><g><g id="BACKGROUND"/><g id="Layer_3"><g><path d="M83.5,85.6c-0.6-0.6-0.6-1.5,0-2.1c0.6-0.6,1.5-0.6,2.1,0l8.8,9c0.6,0.6,0.6,1.5,0,2.1      c-0.6,0.6-1.5,0.6-2.1,0L83.5,85.6z" fill="#F68C29"/><path
        d="M76.6,92.5C76,92,76,91,76.6,90.4c0.6-0.6,1.5-0.6,2.1,0l11.7,11.9c0.6,0.6,0.6,1.5,0,2.1      c-0.6,0.6-1.5,0.6-2.1,0L76.6,92.5z"
        fill="#F68C29"/><path
        d="M90.4,78.7c-0.6-0.6-0.6-1.5,0-2.1c0.6-0.6,1.5-0.6,2.1,0l11.7,11.9c0.6,0.6,0.6,1.5,0,2.1      c-0.6,0.6-1.5,0.6-2.1,0L90.4,78.7z"
        fill="#F68C29"/><path
        d="M26.5,26.5L26.5,26.5c6-6,15.8-6,21.8,0l43.2,43.2c2.2,2.2,2.2,5.8,0,8L77.7,91.5      c-2.2,2.2-5.8,2.2-8,0L26.5,48.3C20.5,42.3,20.5,32.5,26.5,26.5z"
        fill="#F7D309" fill-rule="evenodd"/><rect fill="#002535" fill-rule="evenodd" height="30.9"
                                                  transform="matrix(-0.7071 -0.7071 0.7071 -0.7071 41.5737 100.3503)"
                                                  width="11.7" x="35.7" y="26.1"/><rect fill="#002535"
                                                                                        fill-rule="evenodd"
                                                                                        height="30.9"
                                                                                        transform="matrix(-0.7071 -0.7071 0.7071 -0.7071 78.5369 189.5846)"
                                                                                        width="5.8" x="75.6" y="63.1"/><circle
        cx="57.1" cy="57.1" fill="#E0ECC1" fill-rule="evenodd" r="10.6"/><path
        d="M57.1,48.1c-2.3,0-4.6,0.9-6.4,2.7h0c-1.8,1.8-2.7,4.1-2.7,6.4c0,2.3,0.9,4.6,2.7,6.4l0,0      c1.8,1.8,4.1,2.7,6.4,2.7c2.3,0,4.6-0.9,6.4-2.7l0,0c1.8-1.8,2.7-4.1,2.7-6.4c0-2.3-0.9-4.6-2.7-6.4h0      C61.8,48.9,59.5,48.1,57.1,48.1z M48.6,48.6c2.4-2.4,5.4-3.5,8.5-3.5c3.1,0,6.2,1.2,8.5,3.5l0,0c2.4,2.4,3.5,5.4,3.5,8.5      c0,3.1-1.2,6.2-3.5,8.5l0,0c-2.4,2.4-5.4,3.5-8.5,3.5c-3.1,0-6.2-1.2-8.5-3.5l0,0c-2.4-2.4-3.5-5.4-3.5-8.5      C45.1,54,46.3,51,48.6,48.6L48.6,48.6z"
        fill="#002535"/><path d="M63.3,85.2c-5.3,5.3-4.1,12.8,0.5,20.8C37.7,85,52,73.9,52,73.9L63.3,85.2z"
                              fill="#E53839"/><path
        d="M85.1,63.3c5.3-5.3,12.8-4.1,20.8,0.5C85,37.7,73.9,52,73.9,52L85.1,63.3z" fill="#EE464A"/><path
        d="M65.7,65.7c-2.4,2.4-5.4,3.5-8.5,3.5c-3.1,0-6.2-1.2-8.5-3.5      c-2.4-2.4-3.5-5.4-3.5-8.5c0-3.1,1.2-6.2,3.5-8.5l-2.9-2.9L34.8,56.6l28.5,28.5l2.2,2.2l10.9-10.9L65.7,65.7z"
        fill="#DBBC26" fill-rule="evenodd"/><path
        d="M80.6,80.6L69.7,91.5c1.8,1.8,4.6,2.1,6.8,0.9c0.4-0.2,0.8-0.5,1.2-0.9l1.1-1.1      l4.8-4.8l1.1-1.1l-1.1-1.1L80.6,80.6z"
        fill="#DBBC26" fill-rule="evenodd"/><path d="M26.5,48.3l10.9-10.9L26.5,26.5C20.5,32.5,20.5,42.3,26.5,48.3z"
                                                  fill="#DBBC26" fill-rule="evenodd"/></g></g><g id="GUIDELINE"/></g></svg>