<?xml version="1.0" ?><!DOCTYPE svg  PUBLIC '-//W3C//DTD SVG 1.1//EN'
        'http://www.w3.org/Graphics/SVG/1.1/DTD/svg11.dtd'>
<svg height="135px" id="Layer_1" style="enable-background:new 0 0 135 135;" version="1.1" viewBox="0 0 135 135"
     width="135px" xml:space="preserve" xmlns="http://www.w3.org/2000/svg"><style type="text/css">
<![CDATA[
	.st0{fill:#465652;}
	.st1{fill:#AAB9BA;}
	.st2{fill:#47C67B;}
	.st3{fill:#AAC8D1;}
	.st4{fill:none;stroke:#E83834;stroke-width:6;stroke-linecap:round;stroke-linejoin:round;stroke-miterlimit:10;}
	.st5{fill:#7BC67B;}
	.st6{fill:#7BC7FF;}
	.st7{fill:#7C34C1;}
	.st8{fill:#7C8D96;}
	.st9{fill:#AD2707;}
	.st10{fill:#ADB8BC;}
	.st11{fill:#107510;}
	.st12{fill:#7FE5D8;}
	.st13{fill:#AF4AD1;}
	.st14{fill:#E02B7E;}
	.st15{fill:#E04038;}
	.st16{fill:#AFD7DD;}
	.st17{fill:#E0A010;}
	.st18{fill:#E0D5A4;}
	.st19{fill:#12B2B2;}
	.st20{fill:#12D66B;}
	.st21{fill:#E1A9FF;}
	.st22{fill:#1362A8;}
	.st23{fill:#E2378D;}
	.st24{fill:#E29C37;}
	.st25{fill:#E2B90E;}
	.st26{fill:#E2BF91;}
	.st27{fill:#E2CBAA;}
	.st28{fill:#14A594;}
	.st29{fill:#E4E9ED;}
	.st30{fill:#4A5D60;}
	.st31{fill:#E5B076;}
	.st32{fill:#E5B1C4;}
	.st33{fill:#E5E4C3;}
	.st34{fill:#4B6466;}
	.st35{fill:#E6FF2E;}
	.st36{fill:#18AA67;}
	.st37{fill:#E86207;}
	.st38{fill:#E8A113;}
	.st39{fill:#E8B5A6;}
	.st40{fill:#E8E8ED;}
	.st41{fill:#4E5154;}
	.st42{fill:#E9F1F4;}
	.st43{fill:#4F4B48;}
	.st44{fill:#4F74E8;}
	.st45{fill:#808E93;}
	.st46{fill:#80949B;}
	.st47{fill:#80EDAC;}
	.st48{fill:#B122E0;}
	.st49{fill:#B2C4CC;}
	.st50{fill:#83D839;}
	.st51{fill:#B3C6C6;}
	.st52{fill:none;stroke:#33363A;stroke-width:3;stroke-linecap:round;stroke-linejoin:round;stroke-miterlimit:10;}
	.st53{fill:#1A8E1C;}
	.st54{fill:#1A93D6;}
	.st55{fill:#B50B0B;}
	.st56{fill:#1AD88F;}
	.st57{fill:#B5DAF4;}
	.st58{fill:#EA7B1F;}
	.st59{fill:#EA81BD;}
	.st60{fill:#87B8D6;}
	.st61{fill:#87C3F4;}
	.st62{fill:#EAC79D;}
	.st63{fill:#EADF11;}
	.st64{fill:#EAE4C5;}
	.st65{fill:#B78094;}
	.st66{fill:#8844D8;}
	.st67{fill:#EBF4F7;}
	.st68{fill:#893015;}
	.st69{fill:#89410B;}
	.st70{fill:#899BA3;}
	.st71{fill:#EDE3B9;}
	.st72{enable-background:new    ;}
	.st73{fill:#50FF9F;}
	.st74{fill:#EEDCF4;}
	.st75{fill:#EFA37D;}
	.st76{fill:#EFA3CC;}
	.st77{fill:#EFC99A;}
	.st78{fill:#54AF79;}
	.st79{fill:#BA503A;}
	.st80{fill:#BA8663;}
	.st81{fill:#8B4FE0;}
	.st82{fill:#58ED9B;}
	.st83{fill:#BC7DFF;}
	.st84{fill:#8D9AA3;}
	.st85{fill:#BCCAD3;}
	.st86{fill:#8DE4FF;}
	.st87{fill:#20B518;}
	.st88{fill:#BF44F2;}
	.st89{fill:#21CEA1;}
	.st90{fill:#BFDAE0;}
	.st91{fill:#F0FBFC;}
	.st92{fill:#F2D9A7;}
	.st93{fill:#F2EAC9;}
	.st94{fill:#24D1AF;}
	.st95{fill:#25931C;}
	.st96{fill:#F4C4B3;}
	.st97{fill:#F4D3A2;}
	.st98{fill:#F4D647;}
	.st99{fill:#F4D7B8;}
	.st100{fill:#F4EC8E;}
	.st101{fill:#5B524D;}
	.st102{fill:#F77819;}
	.st103{fill:#F79AE1;}
	.st104{fill:#5E707A;}
	.st105{fill:#F93585;}
	.st106{fill:#F95D5D;}
	.st107{fill:#F9C19B;}
	.st108{fill:#F9CB58;}
	.st109{fill:#F9D2B2;}
	.st110{fill:#F9F07D;}
	.st111{fill:#F9F1D2;}
	.st112{fill:#F9F4B7;}
	.st113{fill:#F9F9E4;}
	.st114{fill:#5F1DAA;}
	.st115{fill:#5F9AD6;}
	.st116{fill:#C0C0C4;}
	.st117{fill:#91EA57;}
	.st118{fill:#C12727;}
	.st119{fill:#C191A0;}
	.st120{fill:#923BB7;}
	.st121{fill:#93A0A3;}
	.st122{fill:#93F9EA;}
	.st123{fill:#93FF5A;}
	.st124{fill:#C4833D;}
	.st125{fill:#95A2A5;}
	.st126{fill:#965514;}
	.st127{fill:#96562C;}
	.st128{fill:#2AF42F;}
	.st129{fill:#C5D7DD;}
	.st130{fill:#C68510;}
	.st131{fill:#C6A86D;}
	.st132{fill:#C6BB8D;}
	.st133{fill:#2C9DCE;}
	.st134{fill:#FBFCF2;}
	.st135{fill:#FC70B0;}
	.st136{fill:#FCE6C8;}
	.st137{fill:#FCF7E3;}
	.st138{fill:#C90D6B;}
	.st139{fill:#FDFEFF;}
	.st140{fill:#FDFFDC;}
	.st141{fill:#FF1A1A;}
	.st142{fill:#FF5252;}
	.st143{fill:#FF5B00;}
	.st144{fill:#FF6155;}
	.st145{fill:#FF630D;}
	.st146{fill:#FF6666;}
	.st147{fill:#FF7676;}
	.st148{fill:#FF7900;}
	.st149{fill:#FF860D;}
	.st150{fill:#FF8B00;}
	.st151{fill:#FF8F8F;}
	.st152{fill:#FF900B;}
	.st153{fill:#FF908A;}
	.st154{fill:#FF960B;}
	.st155{fill:#FF9C0D;}
	.st156{fill:#FFA9D4;}
	.st157{fill:#FFAA00;}
	.st158{fill:#FFAD40;}
	.st159{fill:#FFAF10;}
	.st160{fill:#FFB000;}
	.st161{fill:#FFBE08;}
	.st162{fill:#FFBF31;}
	.st163{fill:#FFC200;}
	.st164{fill:#FFCAE8;}
	.st165{fill:#FFCCF5;}
	.st166{fill:#FFD00B;}
	.st167{fill:#FFD039;}
	.st168{fill:#FFD400;}
	.st169{fill:#FFD833;}
	.st170{fill:#FFDB80;}
	.st171{fill:#FFDDD2;}
	.st172{fill:#FFE6D4;}
	.st173{fill:#FFE6EB;}
	.st174{fill:#FFE98D;}
	.st175{fill:#FFECD2;}
	.st176{fill:#FFF1D9;}
	.st177{fill:#FFF24D;}
	.st178{fill:#FFF3C2;}
	.st179{fill:#FFF4C7;}
	.st180{fill:#FFF800;}
	.st181{fill:#FFF80D;}
	.st182{fill:#FFF9DE;}
	.st183{fill:#FFFBD7;}
	.st184{fill:#FFFBEB;}
	.st185{fill:#FFFCC0;}
	.st186{fill:#FFFCDC;}
	.st187{fill:#FFFFFA;}
	.st188{fill:#FFFFFF;}
	.st189{fill:#63797F;}
	.st190{fill:#65E529;}
	.st191{fill:#66310E;}
	.st192{fill:#663C17;}
	.st193{fill:#9A5AE5;}
	.st194{fill:#CA30EF;}
	.st195{fill:#6892FC;}
	.st196{fill:#9CFFC4;}
	.st197{fill:#CC4306;}
	.st198{fill:#CC549E;}
	.st199{fill:#9E3256;}
	.st200{fill:#CDFFBB;}
	.st201{fill:#CE86AF;}
	.st202{fill:#CED9DD;}
	
		.st203{fill:none;stroke:#33363A;stroke-width:3;stroke-linecap:round;stroke-linejoin:round;stroke-miterlimit:10;stroke-dasharray:6;}
	.st204{fill:#CFE1E2;}
	.st205{fill:#33363A;}
	.st206{fill:#34C166;}
	.st207{fill:#364B5B;}
	.st208{fill:#3662CE;}
	.st209{fill:#36C6FF;}
	.st210{fill:#6ADB9A;}
	.st211{fill:#6D5C4D;}
	.st212{fill:#6EBDF9;}
	.st213{fill:#0031FF;}
	.st214{fill:#0062FF;}
	.st215{fill:#0068FF;}
	.st216{fill:#0086FF;}
	.st217{fill:#009BE8;}
	.st218{fill:#00AAFF;}
	.st219{fill:#D271FF;}
	.st220{fill:#D363A9;}
	.st221{fill:#D3964C;}
	.st222{fill:#D3DFE2;}
	.st223{fill:#D3E0E2;}
	.st224{fill:#D3EFF4;}
	.st225{fill:#063B66;}
	.st226{fill:#D60909;}
	.st227{fill:#D61D1D;}
	.st228{fill:#D7F0FF;}
	.st229{fill:#09B285;}
	.st230{fill:#D8D593;}
	.st231{fill:#D8E2EA;}
	.st232{fill:#D8E5EA;}
	.st233{fill:#3E5054;}
	.st234{fill:#D988FF;}
	.st235{fill:#D9E7E8;}
	.st236{fill:#702252;}
	.st237{fill:#70D3E0;}
	.st238{fill:#A02FF2;}
	.st239{fill:#A2F255;}
	.st240{fill:#A35616;}
	.st241{fill:#A3CCCC;}
	.st242{fill:#0A6ADD;}
	.st243{fill:#A5145D;}
	.st244{fill:#A57555;}
	.st245{fill:#77D6FC;}
	.st246{fill:#7815CE;}
	.st247{fill:#A7BBC1;}
	.st248{fill:#DBD279;}
	.st249{fill:#0D5C9E;}
	.st250{fill:#A83C11;}
	.st251{fill:#A8633D;}
	.st252{fill:#A8A3E5;}
	.st253{fill:#DCE6EA;}
	.st254{fill:#DCE7EA;}
	.st255{fill:#A962E8;}
	.st256{fill:#DD2466;}
	.st257{fill:#DDC38A;}
	.st258{fill:#DDD2B1;}
	.st259{fill:#DFE7E8;}
	.st260{fill:#42B1E8;}
	.st261{fill:#436377;}
	.st262{fill:#43B530;}
]]>
</style>
    <g><g><g><g><g><path class="st141" d="M25.561,108.205c0,4.52-3.662,8.181-8.182,8.181l0,0c-4.52,0-8.182-3.661-8.182-8.181V84.469       c0-4.52,3.662-8.183,8.182-8.183l0,0c4.52,0,8.182,3.663,8.182,8.183V108.205z"/></g><g><path class="st147" d="M17.379,76.287c-4.52,0-8.182,3.663-8.182,8.183v1.61c0,4.519,3.662,8.181,8.182,8.181       s8.182-3.662,8.182-8.181v-1.61C25.561,79.95,21.898,76.287,17.379,76.287z"/></g><g><path class="st205" d="M17.379,117.885c-5.339,0-9.682-4.343-9.682-9.681V84.469c0-5.339,4.343-9.683,9.682-9.683       s9.682,4.344,9.682,9.683v23.735C27.061,113.542,22.718,117.885,17.379,117.885z M17.379,77.787       c-3.685,0-6.682,2.998-6.682,6.683v23.735c0,3.684,2.997,6.681,6.682,6.681s6.682-2.997,6.682-6.681V84.469       C24.061,80.785,21.063,77.787,17.379,77.787z"/></g></g><g><g><path class="st141" d="M125.803,108.205c0,4.52-3.662,8.181-8.183,8.181l0,0c-4.519,0-8.181-3.661-8.181-8.181V84.469       c0-4.52,3.662-8.183,8.181-8.183l0,0c4.521,0,8.183,3.663,8.183,8.183V108.205z"/></g>
        <g><path class="st147" d="M117.62,76.287c-4.519,0-8.181,3.663-8.181,8.183v1.61c0,4.519,3.662,8.181,8.181,8.181       c4.521,0,8.183-3.662,8.183-8.181v-1.61C125.803,79.95,122.141,76.287,117.62,76.287z"/></g>
        <g><path class="st205" d="M117.62,117.885c-5.338,0-9.681-4.343-9.681-9.681V84.469c0-5.339,4.343-9.683,9.681-9.683       c5.339,0,9.683,4.344,9.683,9.683v23.735C127.303,113.542,122.959,117.885,117.62,117.885z M117.62,77.787       c-3.684,0-6.681,2.998-6.681,6.683v23.735c0,3.684,2.997,6.681,6.681,6.681c3.685,0,6.683-2.997,6.683-6.681V84.469       C124.303,80.785,121.305,77.787,117.62,77.787z"/></g></g></g><g><g><path class="st86" d="M70.955,15.422h-6.912c-24.771,0-44.926,20.156-44.926,44.928v51.838c0,9.543,7.734,17.279,17.279,17.279      h62.205c9.545,0,17.281-7.736,17.281-17.279V60.35C115.883,35.579,95.728,15.422,70.955,15.422z"/></g>
        <g><path class="st218" d="M70.955,27.625h-6.912c-24.771,0-44.926,20.156-44.926,44.928v39.635c0,9.543,7.734,17.279,17.279,17.279      h62.205c9.545,0,17.281-7.736,17.281-17.279V72.553C115.883,47.782,95.728,27.625,70.955,27.625z"/></g>
        <g><path class="st205" d="M98.602,130.967H36.396c-10.354,0-18.779-8.424-18.779-18.779V60.35c0-25.6,20.826-46.428,46.426-46.428      h6.912c25.601,0,46.428,20.828,46.428,46.428v51.838C117.383,122.543,108.958,130.967,98.602,130.967z M64.043,16.922      c-23.945,0-43.426,19.481-43.426,43.428v51.838c0,8.701,7.078,15.779,15.779,15.779h62.205c8.702,0,15.781-7.079,15.781-15.779      V60.35c0-23.946-19.481-43.428-43.428-43.428H64.043z"/></g></g><g><path class="st141" d="M99.664,100.574c0,8.091-6.559,14.652-14.65,14.652H49.986c-8.09,0-14.65-6.562-14.65-14.652V89.584     c0-8.09,6.561-14.648,14.65-14.648h35.027c8.092,0,14.65,6.559,14.65,14.648V100.574z"/></g><g><path class="st147" d="M49.986,74.936c-5.369,0-10.051,2.896-12.603,7.205c2.552,4.31,7.233,7.209,12.603,7.209h35.027     c5.369,0,10.051-2.899,12.602-7.209c-2.551-4.309-7.232-7.205-12.602-7.205H49.986z"/></g><g><path class="st205" d="M85.014,116.726H49.986c-8.905,0-16.15-7.246-16.15-16.152V89.584c0-8.904,7.245-16.148,16.15-16.148     h35.027c8.905,0,16.15,7.244,16.15,16.148v10.989C101.164,109.48,93.919,116.726,85.014,116.726z M49.986,76.436     c-7.251,0-13.15,5.898-13.15,13.148v10.989c0,7.252,5.899,13.152,13.15,13.152h35.027c7.251,0,13.15-5.9,13.15-13.152V89.584     c0-7.25-5.899-13.148-13.15-13.148H49.986z"/></g><g><path class="st205" d="M99.604,62.842c-0.828,0-1.5-0.671-1.5-1.5c0-15.61-12.7-28.31-28.312-28.31h-4.585     c-15.61,0-28.311,12.7-28.311,28.31c0,0.829-0.672,1.5-1.5,1.5s-1.5-0.671-1.5-1.5c0-17.264,14.046-31.31,31.311-31.31h4.585     c17.266,0,31.312,14.045,31.312,31.31C101.104,62.171,100.432,62.842,99.604,62.842z"/></g><g><path class="st205" d="M99.883,72.512c-1.287,0-2.334-1.048-2.334-2.336v-2.633c0-1.287,1.047-2.334,2.334-2.334     s2.334,1.047,2.334,2.334v2.633C102.217,71.464,101.17,72.512,99.883,72.512z"/></g><g><path class="st205" d="M81.641,21.174c-0.828,0-1.5-0.671-1.5-1.5c0-6.971-5.671-12.642-12.641-12.642     s-12.641,5.671-12.641,12.642c0,0.829-0.672,1.5-1.5,1.5s-1.5-0.671-1.5-1.5c0-8.625,7.017-15.642,15.641-15.642     s15.641,7.017,15.641,15.642C83.141,20.503,82.469,21.174,81.641,21.174z"/></g></g>
        <g><g><path class="st205" d="M40.668,107.269h-4c-0.828,0-1.5-0.671-1.5-1.5s0.672-1.5,1.5-1.5h4c0.828,0,1.5,0.671,1.5,1.5     S41.496,107.269,40.668,107.269z"/></g>
            <g><path class="st205" d="M86.665,107.269h-7.666c-0.828,0-1.5-0.671-1.5-1.5s0.672-1.5,1.5-1.5h7.666c0.828,0,1.5,0.671,1.5,1.5     S87.493,107.269,86.665,107.269z M71.333,107.269h-7.666c-0.828,0-1.5-0.671-1.5-1.5s0.672-1.5,1.5-1.5h7.666     c0.828,0,1.5,0.671,1.5,1.5S72.161,107.269,71.333,107.269z M56,107.269h-7.666c-0.828,0-1.5-0.671-1.5-1.5s0.672-1.5,1.5-1.5H56     c0.828,0,1.5,0.671,1.5,1.5S56.828,107.269,56,107.269z"/></g>
            <g><path class="st205" d="M98.332,107.269h-4c-0.828,0-1.5-0.671-1.5-1.5s0.672-1.5,1.5-1.5h4c0.828,0,1.5,0.671,1.5,1.5     S99.16,107.269,98.332,107.269z"/></g></g></g></svg>