<?xml version="1.0" ?><!DOCTYPE svg  PUBLIC '-//W3C//DTD SVG 1.0//EN'
        'http://www.w3.org/TR/2001/REC-SVG-20010904/DTD/svg10.dtd'>
<svg height="110px" style="enable-background:new 0 0 110 110;" version="1.0" viewBox="0 0 110 110" width="110px"
     xml:space="preserve" xmlns="http://www.w3.org/2000/svg"><g id="R-Multicolor"><circle cx="55" cy="55" r="55" style="fill:#FABC3D;"/><g><path d="M87,79c0,4.418-3.582,8-8,8H31c-4.418,0-8-3.582-8-8V31c0-4.418,3.582-8,8-8h48    c4.418,0,8,3.582,8,8V79z" style="fill:#F0F1F1;"/>
    <path d="M79,23H31c-4.418,0-8,3.582-8,8v48c0,2.259,0.94,4.296,2.447,5.75l59.304-59.304    C83.296,23.94,81.259,23,79,23z"
          style="fill:#FFFFFF;"/>
    <path d="M41,72.5c0,2.209-1.791,4-4,4s-4-1.791-4-4v-36c0-2.209,1.791-4,4-4s4,1.791,4,4V72.5z"
          style="fill:#3E3E3F;"/>
    <path d="M59,72.5c0,2.209-1.791,4-4,4s-4-1.791-4-4v-36c0-2.209,1.791-4,4-4s4,1.791,4,4V72.5z"
          style="fill:#3E3E3F;"/>
    <path d="M77,72.5c0,2.209-1.791,4-4,4s-4-1.791-4-4v-36c0-2.209,1.791-4,4-4s4,1.791,4,4V72.5z"
          style="fill:#3E3E3F;"/>
    <path d="M44,47c0-1.105-1.045-2-2.333-2h-9.333C31.045,45,30,45.895,30,47v4c0,1.105,1.045,2,2.333,2h9.333    C42.955,53,44,52.105,44,51V47z"
          style="fill:#17B198;"/>
    <path d="M80,47c0-1.105-1.045-2-2.333-2h-9.333C67.045,45,66,45.895,66,47v4c0,1.105,1.045,2,2.333,2h9.333    C78.955,53,80,52.105,80,51V47z"
          style="fill:#17B198;"/>
    <path d="M62,59c0-1.105-1.045-2-2.333-2h-9.333C49.045,57,48,57.895,48,59v4c0,1.105,1.045,2,2.333,2h9.333    C60.955,65,62,64.105,62,63V59z"
          style="fill:#FA5655;"/></g></g></svg>
