<?xml version="1.0" ?>
<svg enable-background="new 0 0 64 64" height="64px" id="Layer_1" version="1.1" viewBox="0 0 64 64" width="64px"
     xml:space="preserve" xmlns="http://www.w3.org/2000/svg"><circle cx="32" cy="32" fill="#77B3D4" r="32"/>
    <g opacity="0.2"><g><path d="M50.941,37.875c0.194-1.808,0.919-3.443,1.228-5.219c0.103-0.595,0.163-1.19,0.209-1.785    C52.29,30.947,52.176,31,52,31c0,0-12-2-20-2s-20,2-20,2c-1.19,0-0.022-2.001-1.117-2.092c0.148,1.146,0.337,2.284,0.569,3.415    c0.598,1.842,1.257,3.652,1.625,5.552L22.241,37C25.422,37,28,39.578,28,42.759v7.482c0,0.409-0.057,0.802-0.138,1.186    c2.69,0.115,5.611,0.382,8.313,0.156C36.071,51.151,36,50.706,36,50.241v-7.482C36,39.578,38.578,37,41.759,37L50.941,37.875    L50.941,37.875z" fill="#231F20"/></g></g>
    <g><g><path d="M12,28c-1.199,0,0.002-2.037-1.137-2.099C10.305,27.838,10,29.883,10,32c0,0.757,0.038,1.505,0.113,2.242    C10.635,34.086,11.187,35,11.759,35l10.482-1C25.422,34,28,36.578,28,39.759v7.482c0,2.453-1.536,4.542-3.696,5.372    C26.7,53.508,29.292,54,32,54s5.3-0.492,7.696-1.387C37.536,51.783,36,49.694,36,47.241v-7.482C36,36.578,38.578,34,41.759,34    l10.482,1c0.572,0,1.124-0.914,1.646-0.758C53.962,33.505,54,32.757,54,32c0-2.117-0.305-4.162-0.863-6.099    C51.998,25.963,53.199,28,52,28c0,0-12-2-20-2S12,28,12,28z" fill="#4F5D73"/></g></g>
    <circle cx="32" cy="33" fill="#231F20" opacity="0.2" r="3"/>
    <circle cx="32" cy="32" fill="#76C2AF" r="3"/>
    <path d="M32,16c9.65,0,17.5,7.85,17.5,17.5S41.65,51,32,51s-17.5-7.85-17.5-17.5S22.35,16,32,16   M32,12c-12.15,0-22,9.85-22,22s9.85,22,22,22s22-9.85,22-22S44.15,12,32,12L32,12z"
          fill="#231F20" opacity="0.2"/>
    <g><path d="M32,14c9.925,0,18,8.075,18,18s-8.075,18-18,18s-18-8.075-18-18S22.075,14,32,14 M32,10   c-12.15,0-22,9.85-22,22s9.85,22,22,22s22-9.85,22-22S44.15,10,32,10L32,10z" fill="#4F5D73"/></g></svg>
