<?xml version="1.0" ?><!DOCTYPE svg  PUBLIC '-//W3C//DTD SVG 1.1//EN'
        'http://www.w3.org/Graphics/SVG/1.1/DTD/svg11.dtd'>
<svg height="512px" id="Layer_1" style="enable-background:new 0 0 512 512;" version="1.1" viewBox="0 0 512 512"
     width="512px" xml:space="preserve" xmlns="http://www.w3.org/2000/svg"><g><path d="M512.413,255.947c0,141.391-114.623,256.004-256.004,256.004   c-141.382,0-255.996-114.613-255.996-256.004c0-141.382,114.613-255.996,255.996-255.996   C397.79-0.049,512.413,114.564,512.413,255.947z" style="fill:#27AAE1;"/><path
        d="M512.413,255.947c0,141.391-114.623,256.004-256.004,256.004   c-141.382,0-255.996-114.613-255.996-256.004c0-141.382,114.613-255.996,255.996-255.996   C397.79-0.049,512.413,114.564,512.413,255.947z"
        style="fill:#76FF03;"/><g><g><g><path d="M161.423,404.061c0,9.693-7.966,17.548-17.781,17.548h-20.12      c-9.833,0-17.799-7.854-17.799-17.548v-22.768c0-9.684,7.966-17.539,17.799-17.539h20.12c9.814,0,17.781,7.855,17.781,17.539      V404.061z" style="fill:#676767;"/><path
        d="M135.379,404.061v-22.768c0-8.055,5.506-14.837,13.018-16.889c-1.522-0.418-3.11-0.65-4.754-0.65h-20.12      c-9.833,0-17.799,7.855-17.799,17.539v22.768c0,9.693,7.966,17.548,17.799,17.548h20.12c1.644,0,3.231-0.241,4.754-0.654      C140.885,418.897,135.379,412.119,135.379,404.061z"/></g><g><path d="M350.131,404.061c0,9.693,7.957,17.548,17.78,17.548h20.121c9.823,0,17.79-7.854,17.79-17.548      v-22.768c0-9.684-7.967-17.539-17.79-17.539h-20.121c-9.823,0-17.78,7.855-17.78,17.539V404.061z" style="fill:#676767;"/>
    <path d="M376.175,404.061v-22.768c0-8.055-5.515-14.837-13.026-16.889c1.514-0.418,3.119-0.65,4.763-0.65h20.121      c9.823,0,17.79,7.855,17.79,17.539v22.768c0,9.693-7.967,17.548-17.79,17.548h-20.121c-1.644,0-3.249-0.241-4.763-0.654      C370.66,418.897,376.175,412.119,376.175,404.061z"/></g><g><path d="M360.419,390.244c0,4.424-3.631,8.008-8.106,8.008h-38.365c-4.484,0-8.115-3.584-8.115-8.008l0,0      c0-4.42,3.631-8.004,8.115-8.004h38.365C356.788,382.24,360.419,385.824,360.419,390.244L360.419,390.244z" style="fill:#2E2E2C;"/>
    <path d="M205.713,390.239c0,4.42-3.631,8.009-8.106,8.009h-38.365c-4.485,0-8.115-3.589-8.115-8.009l0,0      c0-4.424,3.63-8.008,8.115-8.008h38.365C202.082,382.231,205.713,385.815,205.713,390.239L205.713,390.239z"
          style="fill:#2E2E2C;"/></g></g>
    <g><g><polygon points="213.141,177.99 230.726,178.789 225.926,161.732     " style="fill:#676767;"/><g><polygon points="163.215,81.599 158.526,103.831 181.219,108.594 175.091,80.781      " style="fill:#251F1F;"/>
        <path d="M94.794,112.155c0.715-0.26,63.732-8.324,63.732-8.324l35.896,13.491l-35.302,2.874       l-1.161,8.612l-21.188,6.026L94.794,112.155z"
              style="fill:#676767;"/>
        <path d="M227.727,177.897c0,0-1.736-8.5-3.909-17.874c-2.238-9.731-4.967-20.395-6.722-23.463       c-3.445-6.026-40.761-26.991-50.817-27.85c-10.046-0.859-23.537-0.859-23.537-0.859l17.707-7.646c0,0,0.13-0.618,8.449,1.676       c8.329,2.298,48.486,23.77,52.794,28.932c4.309,5.171,14.643,47.66,14.643,47.66L227.727,177.897z"
              style="fill:#949494;"/>
        <path d="M94.794,111.863c0.864-0.279,31.866-14.345,31.866-14.345l33.881,2.581l-16.936,11.764       l-32.729,8.045L94.794,111.863z"
              style="fill:#949494;"/>
        <path d="M126.215,108c0,2.289-1.866,4.15-4.16,4.15s-4.15-1.861-4.15-4.15       c0-2.293,1.857-4.155,4.15-4.155S126.215,105.707,126.215,108z"
              style="fill:#F9ED32;"/></g></g>
        <g><polygon points="304.987,177.99 287.401,178.789 292.202,161.732     " style="fill:#676767;"/>
            <g><polygon points="354.903,81.599 359.602,103.831 336.909,108.594 343.037,80.781      " style="fill:#251F1F;"/>
                <path d="M423.324,112.155c-0.706-0.26-63.723-8.324-63.723-8.324l-35.887,13.491l35.292,2.874       l1.161,8.612l21.179,6.026L423.324,112.155z"
                      style="fill:#676767;"/>
                <path d="M290.4,177.897c0,0,1.736-8.5,3.9-17.874c2.246-9.731,4.967-20.395,6.731-23.463       c3.444-6.026,40.761-26.991,50.807-27.85c10.047-0.859,23.547-0.859,23.547-0.859l-17.706-7.646c0,0-0.13-0.618-8.449,1.676       c-8.329,2.298-48.486,23.77-52.795,28.932c-4.308,5.171-14.642,47.66-14.642,47.66L290.4,177.897z"
                      style="fill:#949494;"/>
                <path d="M423.324,111.863c-0.854-0.279-31.866-14.345-31.866-14.345l-33.871,2.581l16.936,11.764       l32.729,8.045L423.324,111.863z"
                      style="fill:#949494;"/>
                <path d="M391.922,108c0,2.289,1.857,4.15,4.15,4.15c2.294,0,4.15-1.861,4.15-4.15       c0-2.293-1.856-4.155-4.15-4.155C393.779,103.845,391.922,105.707,391.922,108z"
                      style="fill:#F9ED32;"/></g></g></g>
    <g><path d="M408.914,275.496c-17.679-18.402-33.5-39.113-33.5-39.113s-0.065-0.083-0.158-0.223H138.127     c-0.102,0.14-0.167,0.223-0.167,0.223s-15.989,20.71-33.872,39.113c-17.874,18.398-16.936,61.184-16.936,61.184l169.821,5.951     v0.032l0.372-0.009l0.38,0.009v-0.032l167.938-5.951C425.664,336.68,426.602,293.895,408.914,275.496z" style="fill:#B6B8B7;"/>
        <path d="M395.757,275.496     c-16.155-18.402-30.612-39.113-30.612-39.113s-0.065-0.083-0.148-0.223H148.332c-0.083,0.14-0.148,0.223-0.148,0.223     s-14.615,20.71-30.938,39.113c-16.341,18.398-15.478,61.184-15.478,61.184l155.151,5.951v0.032l0.353-0.009l0.335,0.009v-0.032     l153.452-5.951C411.059,336.68,411.913,293.895,395.757,275.496z"
              style="fill:none;stroke:#231F20;stroke-width:0.75;stroke-miterlimit:10;"/>
        <path d="M436.1,345.96c-2.767-11.505-10.584-25.302-10.584-25.302l-0.455,16.104l-162.793,2.785     l-174.501-4.707l-0.464-16.101c0,0-7.818,13.808-10.576,25.302c-2.767,11.504,14.717,31.745,14.717,31.745l166.238,2.813v0.13     l5.599-0.037l2.07,0.037v-0.051l156.024-0.975C421.374,377.705,438.857,357.464,436.1,345.96z"
              style="fill:#676767;"/>
        <path d="M253.976,369.836l-0.009-0.028l-1.587,0.015l-1.681-0.015v0.028l-156.312,1.499     c0,0,6.963,25.617,19.888,29.066c11.476,3.056,114.976,2.791,138.104,2.693c24.317,0.098,133.091,0.362,145.151-2.693     c13.584-3.449,20.9-29.066,20.9-29.066L253.976,369.836z"
              style="fill:#251F1F;"/>
        <path d="M342.889,314.224v25.395l37.938-1.347v-25.13C369.443,313.49,356.417,313.866,342.889,314.224z"
              style="fill:#FAFAFA;"/>
        <path d="M95.732,311.852v25.134l33.797,1.185v-25.204C109.437,312.339,95.732,311.852,95.732,311.852z"
              style="fill:#FAFAFA;"/>
        <path d="M135.491,313.151v25.227l37.938,1.328v-25.474C159.901,313.875,146.874,313.499,135.491,313.151z"
              style="fill:#FAFAFA;"/>
        <path d="M420.585,311.852c0,0-13.704,0.482-33.797,1.109v25.102l33.797-1.197V311.852z" style="fill:#FAFAFA;"/>
        <path d="M257.838,315.686c-22.701,0-54.781-0.673-84.409-1.453v25.474l83.546,2.925v0.032l0.372-0.009     l0.38,0.009v-0.032l85.162-3.013v-25.395C313.01,315.008,280.633,315.686,257.838,315.686z"
              style="fill:#251F1F;"/>
        <path d="M129.53,312.966v25.204l5.961,0.208v-25.227C133.448,313.086,131.461,313.025,129.53,312.966z"
              style="fill:#676767;"/>
        <path d="M380.827,313.142v25.13l5.961-0.209v-25.102C384.856,313.021,382.869,313.077,380.827,313.142z"
              style="fill:#676767;"/>
        <path d="M317.727,180.265c-16.537-4.568-49.471-4.104-60.38-3.807     c-11.031-0.297-44.327-0.761-61.049,3.807c-3.77,1.021-8.152,3.612-12.786,7.14h146.851     C325.776,183.877,321.449,181.286,317.727,180.265z"
              style="fill:#B6B8B7;"/>
        <path d="M330.363,187.405H183.512c-19.377,14.744-43.24,45.933-45.385,48.755h237.128     C373.13,233.338,349.527,202.149,330.363,187.405z"
              style="fill:#251F1F;"/>
        <g><rect height="11.485" style="fill:#F15A29;" width="33.5" x="104.126" y="348.555"/>
            <rect height="11.485" style="fill:#F15A29;" width="33.51" x="377.911" y="348.555"/></g></g></g><path
        d="M141.795,65.768c0,0,0.172,0.061,0.427,0.148c-0.033-0.093-0.065-0.186-0.093-0.278   C141.93,65.712,141.795,65.768,141.795,65.768z"
        style="fill:#FF9100;"/><path
        d="M58.792,418.688c46.95,56.954,118.044,93.263,197.617,93.263   c79.577,0,150.671-36.309,197.625-93.263H58.792z"
        style="fill:#424242;"/></g></svg>