<?xml version="1.0" ?>
<svg height="64" viewBox="0 0 64 64" width="64" xmlns="http://www.w3.org/2000/svg">
    <defs>
        <style>.cls-1{fill:#f25c00;}</style>
    </defs>
    <title/>
    <g data-name="Слой 6" id="Слой_6">
        <path class="cls-1"
              d="M53.1,18.133c.023-.023.031-.052.051-.077A6.991,6.991,0,0,0,60.1,11.062c0-.179-.013-.355-.026-.532,0-.006.012-.007.017-.013L63.772,6.04a1,1,0,0,0-1.5-1.3L59.6.618c-.011-.016-.03-.024-.041-.04s-.019-.044-.035-.063a.955.955,0,0,0-.156-.122.97.97,0,0,0-.121-.1.977.977,0,0,0-.3-.1C58.916.19,58.891.17,58.86.167A27.418,27.418,0,0,0,49.009.83c-.009,0-.017,0-.026,0l-.027.01c-.461.13-.908.27-1.329.429-1.872.707-3.665,1.58-5.4,2.425a56.793,56.793,0,0,1-5.841,2.576c-2.716.96-9.912,4.315-12.62,6.38a1,1,0,0,0,.994,1.717,31.451,31.451,0,0,1,8.725-2.529l2.093.007a82.3,82.3,0,0,1-11.138,9.834l-6.559-.959a.993.993,0,0,0-.959.4,17.839,17.839,0,0,0-2.383,6.084,25.814,25.814,0,0,1-.9,3.033A28.284,28.284,0,0,1,10,37.15c-.011.01-.026.014-.037.025L5.321,41.821a1,1,0,1,0,1.414,1.414l4.524-4.525a.946.946,0,0,0,.194-.153c.007-.008.012-.018.019-.026l.006,0A90.209,90.209,0,0,1,21.539,26.748,1,1,0,0,0,20.158,25.3c-1.393,1.328-2.8,2.814-4.259,4.48.2-.665.393-1.353.579-2.08a18.722,18.722,0,0,1,1.737-4.911c.787.118,2.411.355,5.72.839a12.714,12.714,0,0,0,3.132,6.331,12.579,12.579,0,0,0,2.858,2.292c-.264.464-.516.93-.741,1.4a1,1,0,0,0,1.8.863c.223-.467.477-.93.744-1.392.367.144.731.3,1.112.406a.984.984,0,0,0,.278.04,1,1,0,0,0,.278-1.96c-.2-.057-.379-.141-.57-.208a29.532,29.532,0,0,1,4.606-5.05,78.31,78.31,0,0,1,9.644-6.895.957.957,0,0,0,.164-.159.956.956,0,0,0,.109-.049,1,1,0,0,0,.3-1.382,26.481,26.481,0,0,0-7.549-8.042c2.4-2.6,5.934-5.875,9.448-7.072a23.533,23.533,0,0,1,6.655-.739l-.442.375a1,1,0,0,0,1.295,1.525l1.476-1.253,2.393,3.686L59.457,8.14a7,7,0,1,0-8.7,9.508L29.992,38.413a7,7,0,1,0-11.54,7.3c.075.075.155.139.232.21l-.14.063L15.21,43.761V43.3l.326-.327a.992.992,0,0,0-1.164-1.581l-.951-1.331a1,1,0,1,0-1.627,1.162L13.21,43.2V44.3c0,.024.007.047.009.071l-7.8,7.8a1,1,0,1,0,1.414,1.414l7.8-7.8L17.9,47.956a1,1,0,0,0,.555.168.987.987,0,0,0,.413-.09l1.82-.827a7.021,7.021,0,0,0,2.717.549c.026,0,.052,0,.078,0l-7.113,7.114a1,1,0,1,0,1.414,1.414L28.352,45.71a6.95,6.95,0,0,0,2.05-4.932.952.952,0,0,0,.16-.106ZM33.437,9.841c-.04.007-.071,0-.106.006l-.368.041c1.665-.769,3.17-1.4,4.091-1.729,1.054-.373,2.08-.8,3.082-1.254-1,.995-1.916,2-2.728,2.949Zm11.994,8.3a75.664,75.664,0,0,0-9.317,6.71,31.165,31.165,0,0,0-5.125,5.707A10.446,10.446,0,0,1,25.875,23.1,86.031,86.031,0,0,0,38.607,11.526c.005-.005.007-.012.012-.018l.012-.009.137-.161A23.588,23.588,0,0,1,45.431,18.141ZM49.564,7.526a5,5,0,1,1,0,7.071A4.986,4.986,0,0,1,49.564,7.526ZM26.937,44.3A5,5,0,1,1,28.4,40.761,5.006,5.006,0,0,1,26.937,44.3ZM55.929,13.891a4.005,4.005,0,0,0,0-5.657,4.094,4.094,0,0,0-5.656,0,4,4,0,0,0,5.656,5.657Zm-4.242-1.414a2,2,0,1,1,2.828,0A2,2,0,0,1,51.687,12.477ZM20.574,37.932a4,4,0,1,0,5.656,0A4.005,4.005,0,0,0,20.574,37.932Zm4.242,4.243a2.047,2.047,0,0,1-2.828,0,2,2,0,1,1,2.828,0ZM3.548,45.01a1,1,0,0,1,0,1.415l-1.061,1.06A1,1,0,1,1,1.07,46.072l1.063-1.063A1,1,0,0,1,3.548,45.01Zm9.815,14.275a1,1,0,0,1,0,1.414l-1.332,1.332a1,1,0,0,1-1.414-1.414l1.332-1.332A1,1,0,0,1,13.363,59.285ZM2.957,56.043a1,1,0,0,1,0,1.414l-1.25,1.25A1,1,0,0,1,.293,57.293l1.25-1.25A1,1,0,0,1,2.957,56.043Zm47.729-8.479a5.9,5.9,0,0,0-1.669-.816,3.011,3.011,0,0,1-1.261-.658A1,1,0,0,0,46.02,47l1.161,4.02a2.952,2.952,0,0,0-1.012.1,3,3,0,1,0,3.715,2.05L48.6,48.725a3.339,3.339,0,0,1,.863.422,2.529,2.529,0,0,1,.7,1.034A1,1,0,1,0,52,49.4,4.413,4.413,0,0,0,50.687,47.564Zm-3.408,7.4a1,1,0,1,1,.683-1.238A1,1,0,0,1,47.278,54.961ZM56.7,33.446a1,1,0,0,0,1.234-.689,4.414,4.414,0,0,0,.127-2.255,5.931,5.931,0,0,0-.791-1.682,3.009,3.009,0,0,1-.571-1.3,1,1,0,0,0-1.923-.379L53.165,31a2.993,2.993,0,1,0,.76,3.372v0l1.78-4.266a3.361,3.361,0,0,1,.409.87,2.514,2.514,0,0,1-.105,1.242A1,1,0,0,0,56.7,33.446Zm-5.928.689a1,1,0,1,1,1.308-.538A.992.992,0,0,1,50.771,34.136ZM5.409,18.287h0a3,3,0,0,0,5.514-2.369L9.1,11.669a3.358,3.358,0,0,1,.908.311,2.525,2.525,0,0,1,.818.94,1,1,0,0,0,1.73-1,4.419,4.419,0,0,0-1.531-1.66,5.871,5.871,0,0,0-1.758-.6,3.028,3.028,0,0,1-1.333-.5,1,1,0,0,0-1.61,1.116l1.652,3.845a2.974,2.974,0,0,0-.992.225,3.018,3.018,0,0,0-.4.221c-.122-.021-.241-.044-.378-.058a4.518,4.518,0,0,0-3.242.9A2.641,2.641,0,0,1,1,16a1,1,0,0,0-.2,1.99,5.183,5.183,0,0,0,.522.026,4.634,4.634,0,0,0,2.72-.926,3.417,3.417,0,0,1,1.176-.547A2.979,2.979,0,0,0,5.409,18.287Zm3.676-1.579a1,1,0,1,1-1.314-.523A1,1,0,0,1,9.085,16.708Zm33.509,40.74a5.009,5.009,0,0,1-.947,3.383A3.063,3.063,0,0,0,41,63a1,1,0,0,1-.923,1.071l-.075,0a1,1,0,0,1-1-.926,5.009,5.009,0,0,1,.947-3.383,3.181,3.181,0,0,0-.312-4.219,5.16,5.16,0,0,1-.487-6.587,3.174,3.174,0,0,0-.312-4.212,5.152,5.152,0,0,1-.488-6.582A3.056,3.056,0,0,0,39,36a1,1,0,0,1,.923-1.071.987.987,0,0,1,1.071.923,5,5,0,0,1-.948,3.381,3.172,3.172,0,0,0,.312,4.211,5.153,5.153,0,0,1,.488,6.583,3.179,3.179,0,0,0,.313,4.217A5.011,5.011,0,0,1,42.594,57.448Zm20.373,3.158A3.323,3.323,0,0,0,63,63a1,1,0,0,1-1.871.707,5.3,5.3,0,0,1-.1-3.6,3.512,3.512,0,0,0-1.593-4.21,5.488,5.488,0,0,1-2.41-6.368,3.5,3.5,0,0,0-1.59-4.2,5.481,5.481,0,0,1-2.408-6.364,4.317,4.317,0,0,0,.2-1.345,1,1,0,0,1,.949-1.049.976.976,0,0,1,1.049.949,6.144,6.144,0,0,1-.267,1.947,3.5,3.5,0,0,0,1.59,4.2,5.483,5.483,0,0,1,2.409,6.365,3.509,3.509,0,0,0,1.592,4.208,5.49,5.49,0,0,1,2.41,6.37ZM60,23a1,1,0,1,1,1-1A1,1,0,0,1,60,23Zm0,17a1,1,0,1,1,1,1A1,1,0,0,1,60,40Zm4-15a1,1,0,1,1-1-1A1,1,0,0,1,64,25ZM29,56a1,1,0,1,1-1-1A1,1,0,0,1,29,56Zm4,2a1,1,0,1,1-1-1A1,1,0,0,1,33,58ZM5,26a1,1,0,1,1,1,1A1,1,0,0,1,5,26Zm2,3a1,1,0,1,1-1,1A1,1,0,0,1,7,29ZM32,2a1,1,0,1,1,1,1A1,1,0,0,1,32,2ZM28,1a1,1,0,1,1,1,1A1,1,0,0,1,28,1ZM3.231,2.7A1,1,0,0,1,4.7,1.338,2.647,2.647,0,0,0,6.2,2.2a2.986,2.986,0,0,0,2.2-.313,5.051,5.051,0,0,1,6.37,1.47A2.967,2.967,0,0,0,16.607,4.6,2.958,2.958,0,0,0,18.8,4.287a5.046,5.046,0,0,1,6.366,1.468c.11.131.22.261.338.388A1,1,0,0,1,24.036,7.5c-.139-.15-.27-.3-.4-.459a3.069,3.069,0,0,0-4.026-.93,4.911,4.911,0,0,1-3.452.436,4.922,4.922,0,0,1-2.915-1.9A3.075,3.075,0,0,0,9.21,3.716a4.928,4.928,0,0,1-3.456.434A4.663,4.663,0,0,1,3.231,2.7ZM21.9,19.095a1,1,0,0,1-.994.9c-.033,0-.066,0-.1,0a4.551,4.551,0,0,1-3-1.523,2.67,2.67,0,0,0-3.757-.376l-.184.117a1,1,0,1,1-1.07-1.689l.171-.109a4.642,4.642,0,0,1,6.235.625A2.635,2.635,0,0,0,21,18,1,1,0,0,1,21.9,19.095Z"/>
    </g>
</svg>